<mxfile host="app.diagrams.net" modified="2023-12-21T16:40:15.065Z" agent="Mozilla/5.0 (Windows NT 10.0; Win64; x64) AppleWebKit/537.36 (KHTML, like Gecko) Chrome/120.0.0.0 Safari/537.36 Edg/120.0.0.0" etag="gMeQ5ch_DoHFgs1Yokc5" version="22.1.11" type="device">
  <diagram name="PÃ¡gina-1" id="DCyfG7VpxF-4fud4flb7">
    <mxGraphModel dx="1554" dy="857" grid="1" gridSize="10" guides="1" tooltips="1" connect="1" arrows="1" fold="1" page="1" pageScale="1" pageWidth="827" pageHeight="1169" background="#ffffff" math="0" shadow="0">
      <root>
        <mxCell id="0" />
        <mxCell id="1" parent="0" />
        <mxCell id="7WuPn_OQwjTw8t3WZHUF-1" value="&lt;b&gt;Controller&lt;/b&gt;" style="rounded=0;whiteSpace=wrap;html=1;" vertex="1" parent="1">
          <mxGeometry x="354" y="120" width="120" height="60" as="geometry" />
        </mxCell>
        <mxCell id="7WuPn_OQwjTw8t3WZHUF-2" value="&lt;b&gt;Model&lt;/b&gt;" style="rounded=0;whiteSpace=wrap;html=1;" vertex="1" parent="1">
          <mxGeometry x="200" y="240" width="120" height="60" as="geometry" />
        </mxCell>
        <mxCell id="7WuPn_OQwjTw8t3WZHUF-3" value="&lt;b&gt;View&lt;/b&gt;" style="rounded=0;whiteSpace=wrap;html=1;" vertex="1" parent="1">
          <mxGeometry x="510" y="240" width="120" height="60" as="geometry" />
        </mxCell>
        <mxCell id="7WuPn_OQwjTw8t3WZHUF-4" value="" style="endArrow=classic;html=1;rounded=0;entryX=1;entryY=0.5;entryDx=0;entryDy=0;exitX=0;exitY=0.5;exitDx=0;exitDy=0;" edge="1" parent="1" source="7WuPn_OQwjTw8t3WZHUF-3" target="7WuPn_OQwjTw8t3WZHUF-2">
          <mxGeometry width="50" height="50" relative="1" as="geometry">
            <mxPoint x="390" y="400" as="sourcePoint" />
            <mxPoint x="440" y="350" as="targetPoint" />
          </mxGeometry>
        </mxCell>
        <mxCell id="7WuPn_OQwjTw8t3WZHUF-5" value="" style="endArrow=classic;html=1;rounded=0;exitX=0;exitY=0.5;exitDx=0;exitDy=0;entryX=0.5;entryY=0;entryDx=0;entryDy=0;" edge="1" parent="1" source="7WuPn_OQwjTw8t3WZHUF-1" target="7WuPn_OQwjTw8t3WZHUF-2">
          <mxGeometry width="50" height="50" relative="1" as="geometry">
            <mxPoint x="200" y="20" as="sourcePoint" />
            <mxPoint x="286" y="220" as="targetPoint" />
          </mxGeometry>
        </mxCell>
        <mxCell id="7WuPn_OQwjTw8t3WZHUF-7" value="" style="endArrow=classic;html=1;rounded=0;exitX=1;exitY=0.25;exitDx=0;exitDy=0;entryX=0.75;entryY=0;entryDx=0;entryDy=0;" edge="1" parent="1" source="7WuPn_OQwjTw8t3WZHUF-1" target="7WuPn_OQwjTw8t3WZHUF-3">
          <mxGeometry width="50" height="50" relative="1" as="geometry">
            <mxPoint x="390" y="400" as="sourcePoint" />
            <mxPoint x="440" y="350" as="targetPoint" />
          </mxGeometry>
        </mxCell>
        <mxCell id="7WuPn_OQwjTw8t3WZHUF-8" value="" style="endArrow=classic;html=1;rounded=0;entryX=1;entryY=0.75;entryDx=0;entryDy=0;exitX=0.327;exitY=0.007;exitDx=0;exitDy=0;exitPerimeter=0;" edge="1" parent="1" source="7WuPn_OQwjTw8t3WZHUF-3" target="7WuPn_OQwjTw8t3WZHUF-1">
          <mxGeometry width="50" height="50" relative="1" as="geometry">
            <mxPoint x="390" y="400" as="sourcePoint" />
            <mxPoint x="440" y="350" as="targetPoint" />
          </mxGeometry>
        </mxCell>
        <mxCell id="7WuPn_OQwjTw8t3WZHUF-9" value="&lt;b&gt;Manipulates&lt;/b&gt;" style="text;html=1;align=center;verticalAlign=middle;resizable=0;points=[];autosize=1;strokeColor=none;fillColor=none;" vertex="1" parent="1">
          <mxGeometry x="240" y="158" width="90" height="30" as="geometry" />
        </mxCell>
        <mxCell id="7WuPn_OQwjTw8t3WZHUF-10" value="&lt;b&gt;Displays&lt;/b&gt;" style="text;html=1;align=center;verticalAlign=middle;resizable=0;points=[];autosize=1;strokeColor=none;fillColor=none;" vertex="1" parent="1">
          <mxGeometry x="375" y="238" width="70" height="30" as="geometry" />
        </mxCell>
        <mxCell id="7WuPn_OQwjTw8t3WZHUF-11" value="&lt;b&gt;Actions&lt;/b&gt;" style="text;html=1;align=center;verticalAlign=middle;resizable=0;points=[];autosize=1;strokeColor=none;fillColor=none;" vertex="1" parent="1">
          <mxGeometry x="460" y="200" width="70" height="30" as="geometry" />
        </mxCell>
        <mxCell id="7WuPn_OQwjTw8t3WZHUF-12" value="&lt;b&gt;Renders&lt;/b&gt;" style="text;html=1;align=center;verticalAlign=middle;resizable=0;points=[];autosize=1;strokeColor=none;fillColor=none;" vertex="1" parent="1">
          <mxGeometry x="530" y="158" width="70" height="30" as="geometry" />
        </mxCell>
      </root>
    </mxGraphModel>
  </diagram>
</mxfile>
